<svg width="40" height="40" viewBox="0 0 40 40" fill="none" xmlns="http://www.w3.org/2000/svg">
<circle cx="20" cy="20" r="20" fill="#C51162"/>
<path d="M26 16H25V14C25 11.24 22.76 9 20 9C17.24 9 15 11.24 15 14V16H14C12.9 16 12 16.9 12 18V28C12 29.1 12.9 30 14 30H26C27.1 30 28 29.1 28 28V18C28 16.9 27.1 16 26 16ZM17 14C17 12.34 18.34 11 20 11C21.66 11 23 12.34 23 14V16H17V14ZM26 28H14V18H26V28ZM20 25C21.1 25 22 24.1 22 23C22 21.9 21.1 21 20 21C18.9 21 18 21.9 18 23C18 24.1 18.9 25 20 25Z" fill="white"/>
</svg>
