<svg width="38" height="37" viewBox="0 0 38 37" fill="none" xmlns="http://www.w3.org/2000/svg">
<path d="M10.4062 2.9625L7.725 0.28125C3.225 3.7125 0.2625 9 0 15H3.75C4.03125 10.0312 6.58125 5.68125 10.4062 2.9625ZM33.6375 15H37.3875C37.1062 9 34.1438 3.7125 29.6625 0.28125L27 2.9625C30.7875 5.68125 33.3562 10.0312 33.6375 15ZM29.9438 15.9375C29.9438 10.1813 26.8687 5.3625 21.5063 4.0875V2.8125C21.5063 1.25625 20.25 0 18.6938 0C17.1375 0 15.8813 1.25625 15.8813 2.8125V4.0875C10.5 5.3625 7.44375 10.1625 7.44375 15.9375V25.3125L3.69375 29.0625V30.9375H33.6937V29.0625L29.9438 25.3125V15.9375ZM18.6938 36.5625C18.9563 36.5625 19.2 36.5437 19.4438 36.4875C20.6625 36.225 21.6562 35.4 22.1438 34.275C22.3313 33.825 22.425 33.3375 22.425 32.8125H14.925C14.9438 34.875 16.6125 36.5625 18.6938 36.5625Z" fill="#0D47A1"/>
</svg>
