<svg width="56" height="50" viewBox="0 0 56 50" fill="none" xmlns="http://www.w3.org/2000/svg">
    <path d="M43.506 10.438c-.457-1.23-1.736-2.105-3.243-2.105H15.146c-1.507 0-2.763.875-3.242 2.104l-4.75 12.48v16.666c0 1.146 1.028 2.084 2.284 2.084h2.283c1.256 0 2.284-.938 2.284-2.084V37.5h27.4v2.083c0 1.146 1.027 2.084 2.283 2.084h2.284c1.255 0 2.283-.938 2.283-2.084V22.917l-4.75-12.48zM15.146 31.25c-1.895 0-3.425-1.396-3.425-3.125 0-1.73 1.53-3.125 3.425-3.125 1.895 0 3.425 1.396 3.425 3.125 0 1.73-1.53 3.125-3.425 3.125zm25.117 0c-1.895 0-3.425-1.396-3.425-3.125 0-1.73 1.53-3.125 3.425-3.125 1.895 0 3.425 1.396 3.425 3.125 0 1.73-1.53 3.125-3.425 3.125zM11.721 20.833l3.425-9.375h25.117l3.425 9.375H11.721z" fill="#000" fill-opacity=".54"/>
</svg>
