<svg width="56" height="50" viewBox="0 0 56 50" fill="none" xmlns="http://www.w3.org/2000/svg">
    <path d="M16.288 16.667c2.522 0 4.567-1.866 4.567-4.167 0-2.301-2.045-4.167-4.567-4.167-2.522 0-4.567 1.866-4.567 4.167 0 2.301 2.045 4.167 4.567 4.167zM48.255 25H25.764c-.708-.458-1.347-.958-1.872-1.5l-3.197-3.23a4.907 4.907 0 0 0-1.576-1.04 5.482 5.482 0 0 0-2.192-.48h-.068c-2.832 0-5.138 2.104-5.138 4.688V25H7.154c-1.255 0-2.283.938-2.283 2.083v14.584c0 2.291 2.055 4.166 4.567 4.166h36.534c2.511 0 4.566-1.875 4.566-4.166V27.083c0-1.145-1.027-2.083-2.283-2.083zM16.288 39.583c0 1.146-1.028 2.084-2.284 2.084-1.255 0-2.283-.938-2.283-2.084V31.25c0-1.146 1.028-2.083 2.284-2.083 1.255 0 2.283.937 2.283 2.083v8.333zm9.133 0c0 1.146-1.027 2.084-2.283 2.084s-2.283-.938-2.283-2.084V31.25c0-1.146 1.027-2.083 2.283-2.083s2.283.937 2.283 2.083v8.333zm9.134 0c0 1.146-1.028 2.084-2.283 2.084-1.256 0-2.284-.938-2.284-2.084V31.25c0-1.146 1.028-2.083 2.284-2.083 1.255 0 2.283.937 2.283 2.083v8.333zm9.133 0c0 1.146-1.027 2.084-2.283 2.084s-2.284-.938-2.284-2.084V31.25c0-1.146 1.028-2.083 2.284-2.083 1.256 0 2.283.937 2.283 2.083v8.333zm-8.996-18.75c1.142 0 2.123-.812 2.146-1.854.091-2.916-1.324-5.166-3.082-6.77-1.484-1.5-1.827-2.646-1.759-3.98.046-1.083-.936-1.979-2.146-1.979-1.142 0-2.123.833-2.146 1.875-.069 2.688 1.141 5.063 3.082 6.77 1.393 1.23 1.781 2.647 1.781 3.938-.023 1.084.914 2 2.124 2zm9.133 0c1.142 0 2.124-.812 2.147-1.854.091-2.916-1.325-5.166-3.083-6.77-1.484-1.5-1.827-2.646-1.758-3.98.046-1.083-.936-1.979-2.147-1.979-1.141 0-2.123.833-2.146 1.875-.068 2.688 1.142 5.063 3.083 6.77 1.393 1.23 1.78 2.647 1.78 3.938-.022 1.084.914 2 2.124 2z" fill="#000" fill-opacity=".54"/>
</svg>
